<svg xmlns="http://www.w3.org/2000/svg" viewBox="0 0 709.395 463"><defs><style>.a,.c{fill:none;}.a{stroke:#000;stroke-width:2px;}.b{stroke:none;}</style></defs><g transform="translate(-500.803 -347)"><g transform="translate(500.803 576.402)"><g class="a" transform="translate(37.136 4.792)"><rect class="b" width="159.326" height="29.948"/><rect class="c" x="1" y="1" width="157.326" height="27.948"/></g><g class="a" transform="translate(0)"><rect class="b" width="38.334" height="38.334"/><rect class="c" x="1" y="1" width="36.334" height="36.334"/></g><g class="a" transform="translate(195.264)"><rect class="b" width="38.334" height="38.334"/><rect class="c" x="1" y="1" width="36.334" height="36.334"/></g><g class="a" transform="translate(34.74 37.136) rotate(90)"><rect class="b" width="159.326" height="29.948"/><rect class="c" x="1" y="1" width="157.326" height="27.948"/></g><g class="a" transform="translate(230.004 37.136) rotate(90)"><rect class="b" width="159.326" height="29.948"/><rect class="c" x="1" y="1" width="157.326" height="27.948"/></g><g class="a" transform="translate(37.136 200.056)"><rect class="b" width="159.326" height="29.948"/><rect class="c" x="1" y="1" width="157.326" height="27.948"/></g><g class="a" transform="translate(0 195.264)"><rect class="b" width="38.334" height="38.334"/><rect class="c" x="1" y="1" width="36.334" height="36.334"/></g><g class="a" transform="translate(195.264 195.264)"><rect class="b" width="38.334" height="38.334"/><rect class="c" x="1" y="1" width="36.334" height="36.334"/></g><path class="a" d="M11.435,0,218.966,0l5.3,5.3,5.287,5.287-3.387,3.387,3.388,3.388L218.121,28.8H12.283L0,16.518l2.541-2.541L0,11.435Z" transform="translate(45.821 26.055) rotate(45)"/><path class="a" d="M11.435.424,218.544,0l11.012,11.012L226.973,13.6l3.431,3.346L218.968,28.377l-206.685.847L0,16.941l3.388-3.388L.847,11.012Z" transform="translate(25.756 188.675) rotate(-45)"/></g><g transform="translate(738.701 576.402)"><g class="a" transform="translate(37.136 4.792)"><rect class="b" width="159.326" height="29.948"/><rect class="c" x="1" y="1" width="157.326" height="27.948"/></g><g class="a" transform="translate(0)"><rect class="b" width="38.334" height="38.334"/><rect class="c" x="1" y="1" width="36.334" height="36.334"/></g><g class="a" transform="translate(195.264)"><rect class="b" width="38.334" height="38.334"/><rect class="c" x="1" y="1" width="36.334" height="36.334"/></g><g class="a" transform="translate(34.74 37.136) rotate(90)"><rect class="b" width="159.326" height="29.948"/><rect class="c" x="1" y="1" width="157.326" height="27.948"/></g><g class="a" transform="translate(230.004 37.136) rotate(90)"><rect class="b" width="159.326" height="29.948"/><rect class="c" x="1" y="1" width="157.326" height="27.948"/></g><g class="a" transform="translate(37.136 200.056)"><rect class="b" width="159.326" height="29.948"/><rect class="c" x="1" y="1" width="157.326" height="27.948"/></g><g class="a" transform="translate(0 195.264)"><rect class="b" width="38.334" height="38.334"/><rect class="c" x="1" y="1" width="36.334" height="36.334"/></g><g class="a" transform="translate(195.264 195.264)"><rect class="b" width="38.334" height="38.334"/><rect class="c" x="1" y="1" width="36.334" height="36.334"/></g><path class="a" d="M11.435,0,218.966,0l5.3,5.3,5.287,5.287-3.387,3.387,3.388,3.388L218.121,28.8H12.283L0,16.518l2.541-2.541L0,11.435Z" transform="translate(45.821 26.055) rotate(45)"/><path class="a" d="M11.435.424,218.544,0l11.012,11.012L226.973,13.6l3.431,3.346L218.968,28.377l-206.685.847L0,16.941l3.388-3.388L.847,11.012Z" transform="translate(25.756 188.675) rotate(-45)"/></g><g transform="translate(976.599 576.402)"><g class="a" transform="translate(37.136 4.792)"><rect class="b" width="159.326" height="29.948"/><rect class="c" x="1" y="1" width="157.326" height="27.948"/></g><g class="a" transform="translate(0)"><rect class="b" width="38.334" height="38.334"/><rect class="c" x="1" y="1" width="36.334" height="36.334"/></g><g class="a" transform="translate(195.264)"><rect class="b" width="38.334" height="38.334"/><rect class="c" x="1" y="1" width="36.334" height="36.334"/></g><g class="a" transform="translate(34.74 37.136) rotate(90)"><rect class="b" width="159.326" height="29.948"/><rect class="c" x="1" y="1" width="157.326" height="27.948"/></g><g class="a" transform="translate(230.004 37.136) rotate(90)"><rect class="b" width="159.326" height="29.948"/><rect class="c" x="1" y="1" width="157.326" height="27.948"/></g><g class="a" transform="translate(37.136 200.056)"><rect class="b" width="159.326" height="29.948"/><rect class="c" x="1" y="1" width="157.326" height="27.948"/></g><g class="a" transform="translate(0 195.264)"><rect class="b" width="38.334" height="38.334"/><rect class="c" x="1" y="1" width="36.334" height="36.334"/></g><g class="a" transform="translate(195.264 195.264)"><rect class="b" width="38.334" height="38.334"/><rect class="c" x="1" y="1" width="36.334" height="36.334"/></g><path class="a" d="M11.435,0,218.966,0l5.3,5.3,5.287,5.287-3.387,3.387,3.388,3.388L218.121,28.8H12.283L0,16.518l2.541-2.541L0,11.435Z" transform="translate(45.821 26.055) rotate(45)"/><path class="a" d="M11.435.424,218.544,0l11.012,11.012L226.973,13.6l3.431,3.346L218.968,28.377l-206.685.847L0,16.941l3.388-3.388L.847,11.012Z" transform="translate(25.756 188.675) rotate(-45)"/></g><g transform="translate(613.38 347)"><g class="a" transform="translate(37.136 4.792)"><rect class="b" width="159.326" height="29.948"/><rect class="c" x="1" y="1" width="157.326" height="27.948"/></g><g class="a" transform="translate(0 0)"><rect class="b" width="38.334" height="38.334"/><rect class="c" x="1" y="1" width="36.334" height="36.334"/></g><g class="a" transform="translate(195.264 0)"><rect class="b" width="38.334" height="38.334"/><rect class="c" x="1" y="1" width="36.334" height="36.334"/></g><g class="a" transform="translate(34.74 37.136) rotate(90)"><rect class="b" width="159.326" height="29.948"/><rect class="c" x="1" y="1" width="157.326" height="27.948"/></g><g class="a" transform="translate(230.004 37.136) rotate(90)"><rect class="b" width="159.326" height="29.948"/><rect class="c" x="1" y="1" width="157.326" height="27.948"/></g><g class="a" transform="translate(37.136 200.056)"><rect class="b" width="159.326" height="29.948"/><rect class="c" x="1" y="1" width="157.326" height="27.948"/></g><g class="a" transform="translate(0 195.264)"><rect class="b" width="38.334" height="38.334"/><rect class="c" x="1" y="1" width="36.334" height="36.334"/></g><g class="a" transform="translate(195.264 195.264)"><rect class="b" width="38.334" height="38.334"/><rect class="c" x="1" y="1" width="36.334" height="36.334"/></g><path class="a" d="M11.435,0,218.966,0l5.3,5.3,5.287,5.287-3.387,3.387,3.388,3.388L218.121,28.8H12.283L0,16.518l2.541-2.541L0,11.435Z" transform="translate(45.821 26.055) rotate(45)"/><path class="a" d="M11.435.424,218.544,0l11.012,11.012L226.973,13.6l3.431,3.346L218.968,28.377l-206.685.847L0,16.941l3.388-3.388L.847,11.012Z" transform="translate(25.756 188.675) rotate(-45)"/></g><g transform="translate(851.278 347)"><g class="a" transform="translate(37.136 4.792)"><rect class="b" width="159.326" height="29.948"/><rect class="c" x="1" y="1" width="157.326" height="27.948"/></g><g class="a" transform="translate(0 0)"><rect class="b" width="38.334" height="38.334"/><rect class="c" x="1" y="1" width="36.334" height="36.334"/></g><g class="a" transform="translate(195.264 0)"><rect class="b" width="38.334" height="38.334"/><rect class="c" x="1" y="1" width="36.334" height="36.334"/></g><g class="a" transform="translate(34.74 37.136) rotate(90)"><rect class="b" width="159.326" height="29.948"/><rect class="c" x="1" y="1" width="157.326" height="27.948"/></g><g class="a" transform="translate(230.004 37.136) rotate(90)"><rect class="b" width="159.326" height="29.948"/><rect class="c" x="1" y="1" width="157.326" height="27.948"/></g><g class="a" transform="translate(37.136 200.056)"><rect class="b" width="159.326" height="29.948"/><rect class="c" x="1" y="1" width="157.326" height="27.948"/></g><g class="a" transform="translate(0 195.264)"><rect class="b" width="38.334" height="38.334"/><rect class="c" x="1" y="1" width="36.334" height="36.334"/></g><g class="a" transform="translate(195.264 195.264)"><rect class="b" width="38.334" height="38.334"/><rect class="c" x="1" y="1" width="36.334" height="36.334"/></g><path class="a" d="M11.435,0,218.966,0l5.3,5.3,5.287,5.287-3.387,3.387,3.388,3.388L218.121,28.8H12.283L0,16.518l2.541-2.541L0,11.435Z" transform="translate(45.821 26.055) rotate(45)"/><path class="a" d="M11.435.424,218.544,0l11.012,11.012L226.973,13.6l3.431,3.346L218.968,28.377l-206.685.847L0,16.941l3.388-3.388L.847,11.012Z" transform="translate(25.756 188.675) rotate(-45)"/></g></g></svg>