<svg xmlns="http://www.w3.org/2000/svg" xmlns:xlink="http://www.w3.org/1999/xlink" viewBox="0 0 641.642 683.965"><defs><style>.a{fill:#fff;stroke:#707070;}.b{clip-path:url(#a);}.c{fill:#722121;}.c,.d{fill-rule:evenodd;}.d{fill:#8a2a2a;}.e{fill:#8e2828;font-size:889px;font-family:ProximaNova-Bold, Proxima Nova;font-weight:700;}</style><clipPath id="a"><rect class="a" width="641.642" height="683.965" transform="translate(349 -76)"/></clipPath></defs><g class="b" transform="translate(-349 76)"><g transform="translate(349 -255.006)"><path class="c" d="M39.578,46.068C21.38,62.679-7.541,178.981,16.39,325.562S219.458,618.083,219.458,618.083c-29.024-116.635,144.482-73.329,189.836-88.148,69.8-22.8,43.511-56.308,104.938-97.746s181.338-14.154,218.348-31.174,76.784-90.477,76.784-90.477S733.731,346.089,558,253.385,390.379,109.466,299.236,59.326C232.716,22.7,105.28-13.823,39.578,46.068Z" transform="translate(113.987 199.469)"/><path class="d" d="M121.356,35.894s29.971,27.182,118.529,115.867,272.3,141.1,258.225,142.383c-37.624,3.4-194.519-2.713-206.088,4.018-37.675,21.7-.154,86.28-.154,86.28s-48.63-68.107-83.055-110.825-70.82-97.925-55.694-91.4,64.268,22.088,44.586-3.123S89.44,53.682,79.97,37.993,121.356,35.894,121.356,35.894Z" transform="translate(233.485 226.484)"/><path class="d" d="M94.975,71.878c52.443,101.483,97,187.762,135.652,236.623s48.63,67.314,31,56.948-64.345-46.378-73.969-29.587,12.541,47.12-10.519,35.653S74.678,179.094,57.632,118.46,94.975,71.878,94.975,71.878Z" transform="translate(192.578 293.417)"/><path class="d" d="M43.189,144.035s9.547,80.009,63.3,181.9,75.351,159.711,56.667,141.539-80.444-99.384-109.212-164.8C-18.34,138.507,49.281,38.841,48.052,43.294,45.058,54.786,43.189,144.035,43.189,144.035Z" transform="translate(136.047 247.75)"/><text class="e" transform="translate(0 818)"><tspan x="0" y="0">S</tspan></text><path class="c" d="M73.034,14.929c-2.943-.282-42.641,8.753-44.151,13s4.479,9.7,16.381,19.5,19.452,5.273,19.452,5.273a40.107,40.107,0,0,1,0-22.6c1.612-4.863.793-7.678,2.252-9.752C68.734,17.54,72.727,16,73.034,14.929Z" transform="translate(149.662 200.559)"/><path class="c" d="M66,14.924c2.943-.512,33.657,2.329,35.372,6.527S97.589,31.433,86.4,41.927s-18.812,6.6-18.812,6.6,9.905-11.39,5.4-22.421S66,14.924,66,14.924Z" transform="translate(212.104 200.462)"/></g></g></svg>