<svg xmlns="http://www.w3.org/2000/svg" xmlns:xlink="http://www.w3.org/1999/xlink" viewBox="0 0 418 718.458"><defs><style>.a{fill:#fff;stroke:#707070;}.b{clip-path:url(#a);}.c{fill:#9a3434;}.d,.e,.g{fill:none;}.d,.e{stroke:#000;}.d{stroke-linecap:round;stroke-width:6px;}.e{stroke-width:3px;}.f{stroke:none;}</style><clipPath id="a"><rect class="a" width="418" height="718.458" transform="translate(862 62)"/></clipPath></defs><g transform="translate(-709 -91.771)"><g class="b" transform="translate(-153 29.771)"><g transform="translate(871.239 62)"><g transform="translate(12.23 7.84)"><path d="M326.636,778.3H52.866A50.456,50.456,0,0,1,2.377,727.813V52.013A50.456,50.456,0,0,1,52.866,1.524h273.77a50.456,50.456,0,0,1,50.489,50.489v675.8A50.456,50.456,0,0,1,326.636,778.3ZM52.866,2.778A49.319,49.319,0,0,0,3.631,52.013v675.8a49.318,49.318,0,0,0,49.235,49.235h273.77a49.319,49.319,0,0,0,49.235-49.235V52.013A49.319,49.319,0,0,0,326.636,2.778H52.866Z" transform="translate(-2.377 -1.524)"/></g><g transform="translate(22.579 19.129)"><path d="M321.12,757.917H42.019A37.742,37.742,0,0,1,4.388,720.285V41.349A37.742,37.742,0,0,1,42.019,3.717h279.1a37.742,37.742,0,0,1,37.632,37.632V719.972A37.81,37.81,0,0,1,321.12,757.917ZM42.019,6.226A35.065,35.065,0,0,0,6.9,41.349V719.972a35.065,35.065,0,0,0,35.123,35.123h279.1a35.065,35.065,0,0,0,35.123-35.123V41.349A35.065,35.065,0,0,0,321.12,6.226H42.019Z" transform="translate(-4.388 -3.717)"/></g><g transform="translate(22.579 19.129)"><path d="M321.12,757.917H42.019A37.742,37.742,0,0,1,4.388,720.285V41.349A37.742,37.742,0,0,1,42.019,3.717h279.1a37.742,37.742,0,0,1,37.632,37.632V719.972A37.81,37.81,0,0,1,321.12,757.917ZM42.019,6.226A35.065,35.065,0,0,0,6.9,41.349V719.972a35.065,35.065,0,0,0,35.123,35.123h279.1a35.065,35.065,0,0,0,35.123-35.123V41.349A35.065,35.065,0,0,0,321.12,6.226H42.019Z" transform="translate(-4.388 -3.717)"/></g><path d="M336.489,792.458H62.719A58.888,58.888,0,0,1,3.763,733.5V296.976A7.133,7.133,0,0,1,0,290.7V241.156a7.529,7.529,0,0,1,3.763-6.272V222.026A7.133,7.133,0,0,1,0,215.754V166.206a7.529,7.529,0,0,1,3.763-6.272V138.923A6.65,6.65,0,0,1,0,132.965V113.522a7.529,7.529,0,0,1,3.763-6.272V58.956A58.888,58.888,0,0,1,62.719,0h273.77a58.888,58.888,0,0,1,58.956,58.956v122.93a6.86,6.86,0,0,1,4.077,6.272v83.417a6.546,6.546,0,0,1-4.077,6.272V733.5A59.089,59.089,0,0,1,336.489,792.458ZM62.719,2.822A56.077,56.077,0,0,0,6.586,58.956v49.862l-.941.314a4.465,4.465,0,0,0-2.822,4.077v19.443a4.465,4.465,0,0,0,2.822,4.077l.941.314v24.774l-.941.314a4.465,4.465,0,0,0-2.822,4.077v49.548a4.465,4.465,0,0,0,2.822,4.077l.941.314v16.621l-.941.314a4.465,4.465,0,0,0-2.822,4.077V290.7a4.465,4.465,0,0,0,2.822,4.077l.941.314V733.5a56.077,56.077,0,0,0,56.134,56.134h273.77A56.077,56.077,0,0,0,392.623,733.5V275.651l.941-.314a4.33,4.33,0,0,0,3.136-4.077v-83.1a4.33,4.33,0,0,0-3.136-4.077l-.941-.314V58.956A56.077,56.077,0,0,0,336.489,2.822H62.719Z"/><g transform="translate(175.3 26.969)"><path d="M79.852,13.081H37.83a3.623,3.623,0,0,1-3.763-3.763V9A3.623,3.623,0,0,1,37.83,5.241H79.852A3.623,3.623,0,0,1,83.615,9v.314A4.047,4.047,0,0,1,79.852,13.081ZM37.83,6.5A2.7,2.7,0,0,0,35.321,9v.314a2.7,2.7,0,0,0,2.509,2.509H79.852A2.7,2.7,0,0,0,82.36,9.318V9A2.7,2.7,0,0,0,79.852,6.5Z" transform="translate(-34.066 -5.241)"/></g><g transform="translate(235.197 23.833)"><path d="M53.233,19.684a7.631,7.631,0,0,1-7.526-7.526,7.526,7.526,0,0,1,15.053,0A7.631,7.631,0,0,1,53.233,19.684Zm0-13.8A6.272,6.272,0,1,0,59.5,12.158,6.29,6.29,0,0,0,53.233,5.886Z" transform="translate(-45.706 -4.632)"/></g><g transform="translate(115.676 24.733)"><path d="M30.047,19.586a7.734,7.734,0,0,1-7.213-5.018h0a7.626,7.626,0,0,1,4.7-9.408,7.626,7.626,0,0,1,9.408,4.7,7.626,7.626,0,0,1-4.7,9.408C31.615,19.273,30.987,19.586,30.047,19.586ZM24.4,13.942a6.49,6.49,0,0,0,7.84,4.077,6.49,6.49,0,0,0,4.077-7.84A6.49,6.49,0,0,0,28.479,6.1c-3.45,1.254-5.331,4.7-4.077,7.84Z" transform="translate(-22.48 -4.806)"/></g><g transform="translate(97.529 19.443)"><path d="M194.881,33.57H46.236A23.154,23.154,0,0,1,23.03,10.364a4.151,4.151,0,0,0-4.077-4.077V3.778a6.624,6.624,0,0,1,6.586,6.586,20.677,20.677,0,0,0,20.7,20.7H194.567a20.677,20.677,0,0,0,20.7-20.7,6.624,6.624,0,0,1,6.586-6.586V6.287a4.151,4.151,0,0,0-4.077,4.077A22.7,22.7,0,0,1,194.881,33.57Z" transform="translate(-18.953 -3.778)"/></g><g transform="translate(173.732 14.112)"><path class="c" d="M82.491,11.331h-46.1a2.473,2.473,0,0,1-2.509-2.509V5.373a2.473,2.473,0,0,1,2.509-2.509h46.1A2.473,2.473,0,0,1,85,5.373v3.45C85.313,10.077,84.059,11.331,82.491,11.331Z" transform="translate(-33.256 -2.237)"/><path d="M81.428,12.464H38.466a4.823,4.823,0,0,1-4.7-4.7V7.446a4.823,4.823,0,0,1,4.7-4.7H81.428a4.823,4.823,0,0,1,4.7,4.7V7.76C86.446,10.269,84.251,12.464,81.428,12.464ZM38.466,4a3.48,3.48,0,0,0-3.45,3.45V7.76a3.48,3.48,0,0,0,3.45,3.45H81.428a3.48,3.48,0,0,0,3.45-3.45V7.446A3.48,3.48,0,0,0,81.428,4Z" transform="translate(-33.762 -2.742)"/></g></g></g><g transform="translate(110 89.5)"><line class="d" x2="46.562" transform="translate(785.842 257.5)"/><line class="d" y2="47.063" transform="translate(810.875 257.5)"/><line class="d" y1="18.525" x2="18.525" transform="translate(879.968 318.081)"/><line class="d" y2="65.588" transform="translate(809.373 349.623)"/><g class="d" transform="translate(717 304.313)"><circle class="f" cx="92.624" cy="92.624" r="92.624"/><circle class="g" cx="92.624" cy="92.624" r="89.624"/></g></g><g class="e" transform="translate(760 304)"><rect class="f" width="319" height="319" rx="70"/><rect class="g" x="1.5" y="1.5" width="316" height="316" rx="68.5"/></g></g></svg>